<svg width="531" height="108" viewBox="0 0 531 108" fill="none" xmlns="http://www.w3.org/2000/svg">
<g filter="url(#filter0_d_0_1)">
<rect x="4" width="523" height="100" rx="9" fill="#B51515"/>
</g>
<path d="M122.239 43H119.068C118.881 42.0881 118.553 41.2869 118.084 40.5966C117.624 39.9062 117.061 39.3267 116.396 38.858C115.74 38.3807 115.011 38.0227 114.21 37.7841C113.409 37.5455 112.574 37.4261 111.705 37.4261C110.119 37.4261 108.683 37.8267 107.396 38.6278C106.118 39.429 105.099 40.6094 104.341 42.169C103.591 43.7287 103.216 45.642 103.216 47.9091C103.216 50.1761 103.591 52.0895 104.341 53.6491C105.099 55.2088 106.118 56.3892 107.396 57.1903C108.683 57.9915 110.119 58.392 111.705 58.392C112.574 58.392 113.409 58.2727 114.21 58.0341C115.011 57.7955 115.74 57.4418 116.396 56.973C117.061 56.4957 117.624 55.9119 118.084 55.2216C118.553 54.5227 118.881 53.7216 119.068 52.8182H122.239C122 54.1562 121.565 55.3537 120.935 56.4105C120.304 57.4673 119.52 58.3665 118.582 59.108C117.645 59.8409 116.592 60.3991 115.425 60.7827C114.266 61.1662 113.026 61.358 111.705 61.358C109.472 61.358 107.486 60.8125 105.747 59.7216C104.009 58.6307 102.641 57.0795 101.643 55.0682C100.646 53.0568 100.148 50.6705 100.148 47.9091C100.148 45.1477 100.646 42.7614 101.643 40.75C102.641 38.7386 104.009 37.1875 105.747 36.0966C107.486 35.0057 109.472 34.4602 111.705 34.4602C113.026 34.4602 114.266 34.652 115.425 35.0355C116.592 35.419 117.645 35.9815 118.582 36.723C119.52 37.456 120.304 38.3509 120.935 39.4077C121.565 40.456 122 41.6534 122.239 43ZM134.93 61.4091C133.157 61.4091 131.602 60.9872 130.264 60.1435C128.934 59.2997 127.895 58.1193 127.145 56.6023C126.403 55.0852 126.032 53.3125 126.032 51.2841C126.032 49.2386 126.403 47.4531 127.145 45.9276C127.895 44.402 128.934 43.2173 130.264 42.3736C131.602 41.5298 133.157 41.108 134.93 41.108C136.703 41.108 138.254 41.5298 139.583 42.3736C140.922 43.2173 141.961 44.402 142.703 45.9276C143.453 47.4531 143.828 49.2386 143.828 51.2841C143.828 53.3125 143.453 55.0852 142.703 56.6023C141.961 58.1193 140.922 59.2997 139.583 60.1435C138.254 60.9872 136.703 61.4091 134.93 61.4091ZM134.93 58.6989C136.277 58.6989 137.385 58.3537 138.254 57.6634C139.123 56.973 139.767 56.0653 140.184 54.9403C140.602 53.8153 140.811 52.5966 140.811 51.2841C140.811 49.9716 140.602 48.7486 140.184 47.6151C139.767 46.4815 139.123 45.5653 138.254 44.8665C137.385 44.1676 136.277 43.8182 134.93 43.8182C133.583 43.8182 132.475 44.1676 131.606 44.8665C130.737 45.5653 130.093 46.4815 129.676 47.6151C129.258 48.7486 129.049 49.9716 129.049 51.2841C129.049 52.5966 129.258 53.8153 129.676 54.9403C130.093 56.0653 130.737 56.973 131.606 57.6634C132.475 58.3537 133.583 58.6989 134.93 58.6989ZM151.45 49.1875V61H148.433V41.3636H151.348V44.4318H151.604C152.064 43.4347 152.763 42.6335 153.7 42.0284C154.638 41.4148 155.848 41.108 157.331 41.108C158.661 41.108 159.824 41.3807 160.821 41.9261C161.818 42.4631 162.594 43.2812 163.148 44.3807C163.702 45.4716 163.979 46.8523 163.979 48.5227V61H160.962V48.7273C160.962 47.1847 160.561 45.983 159.76 45.1222C158.959 44.2528 157.859 43.8182 156.462 43.8182C155.499 43.8182 154.638 44.027 153.879 44.4446C153.129 44.8622 152.537 45.4716 152.102 46.2727C151.668 47.0739 151.45 48.0455 151.45 49.1875ZM178.032 41.3636V43.9205H167.855V41.3636H178.032ZM170.821 36.6591H173.838V55.375C173.838 56.2273 173.962 56.8665 174.209 57.2926C174.465 57.7102 174.789 57.9915 175.181 58.1364C175.581 58.2727 176.003 58.3409 176.446 58.3409C176.779 58.3409 177.051 58.3239 177.265 58.2898C177.478 58.2472 177.648 58.2131 177.776 58.1875L178.39 60.8977C178.185 60.9744 177.9 61.0511 177.533 61.1278C177.167 61.2131 176.702 61.2557 176.14 61.2557C175.287 61.2557 174.452 61.0724 173.634 60.706C172.824 60.3395 172.151 59.7812 171.614 59.0312C171.086 58.2812 170.821 57.3352 170.821 56.1932V36.6591ZM182.57 61V41.3636H185.587V61H182.57ZM184.104 38.0909C183.516 38.0909 183.009 37.8906 182.583 37.4901C182.165 37.0895 181.956 36.608 181.956 36.0455C181.956 35.483 182.165 35.0014 182.583 34.6009C183.009 34.2003 183.516 34 184.104 34C184.692 34 185.195 34.2003 185.613 34.6009C186.039 35.0014 186.252 35.483 186.252 36.0455C186.252 36.608 186.039 37.0895 185.613 37.4901C185.195 37.8906 184.692 38.0909 184.104 38.0909ZM194.13 49.1875V61H191.113V41.3636H194.028V44.4318H194.283C194.744 43.4347 195.442 42.6335 196.38 42.0284C197.317 41.4148 198.528 41.108 200.011 41.108C201.34 41.108 202.504 41.3807 203.501 41.9261C204.498 42.4631 205.273 43.2812 205.827 44.3807C206.381 45.4716 206.658 46.8523 206.658 48.5227V61H203.641V48.7273C203.641 47.1847 203.241 45.983 202.44 45.1222C201.638 44.2528 200.539 43.8182 199.141 43.8182C198.178 43.8182 197.317 44.027 196.559 44.4446C195.809 44.8622 195.217 45.4716 194.782 46.2727C194.347 47.0739 194.13 48.0455 194.13 49.1875ZM224.547 52.9716V41.3636H227.564V61H224.547V57.6761H224.342C223.882 58.6733 223.166 59.5213 222.194 60.2202C221.223 60.9105 219.995 61.2557 218.512 61.2557C217.285 61.2557 216.194 60.9872 215.24 60.4503C214.285 59.9048 213.535 59.0866 212.99 57.9957C212.444 56.8963 212.172 55.5114 212.172 53.8409V41.3636H215.189V53.6364C215.189 55.0682 215.589 56.2102 216.39 57.0625C217.2 57.9148 218.231 58.3409 219.484 58.3409C220.234 58.3409 220.997 58.1491 221.772 57.7656C222.556 57.3821 223.213 56.794 223.741 56.0014C224.278 55.2088 224.547 54.1989 224.547 52.9716ZM241.322 61.4091C239.43 61.4091 237.798 60.9915 236.426 60.1562C235.062 59.3125 234.01 58.1364 233.268 56.6278C232.536 55.1108 232.169 53.3466 232.169 51.3352C232.169 49.3239 232.536 47.5511 233.268 46.017C234.01 44.4744 235.041 43.2727 236.362 42.4119C237.692 41.5426 239.243 41.108 241.016 41.108C242.038 41.108 243.048 41.2784 244.045 41.6193C245.043 41.9602 245.95 42.5142 246.768 43.2812C247.587 44.0398 248.239 45.0455 248.724 46.2983C249.21 47.5511 249.453 49.0937 249.453 50.9261V52.2045H234.317V49.5966H246.385C246.385 48.4886 246.163 47.5 245.72 46.6307C245.286 45.7614 244.663 45.0753 243.854 44.5724C243.053 44.0696 242.107 43.8182 241.016 43.8182C239.814 43.8182 238.774 44.1165 237.896 44.7131C237.027 45.3011 236.358 46.0682 235.889 47.0142C235.42 47.9602 235.186 48.9744 235.186 50.0568V51.7955C235.186 53.2784 235.442 54.5355 235.953 55.5668C236.473 56.5895 237.193 57.3693 238.114 57.9062C239.034 58.4347 240.104 58.6989 241.322 58.6989C242.115 58.6989 242.831 58.5881 243.47 58.3665C244.118 58.1364 244.676 57.7955 245.145 57.3438C245.614 56.8835 245.976 56.3125 246.232 55.6307L249.146 56.4489C248.839 57.4375 248.324 58.3068 247.599 59.0568C246.875 59.7983 245.98 60.3778 244.915 60.7955C243.849 61.2045 242.652 61.4091 241.322 61.4091ZM268.616 61L262.634 41.3636H265.804L270.048 56.3977H270.253L274.446 41.3636H277.668L281.81 56.3466H282.014L286.259 41.3636H289.429L283.446 61H280.48L276.185 45.9148H275.878L271.582 61H268.616ZM293.418 61V41.3636H296.435V61H293.418ZM294.952 38.0909C294.364 38.0909 293.857 37.8906 293.43 37.4901C293.013 37.0895 292.804 36.608 292.804 36.0455C292.804 35.483 293.013 35.0014 293.43 34.6009C293.857 34.2003 294.364 34 294.952 34C295.54 34 296.043 34.2003 296.46 34.6009C296.886 35.0014 297.099 35.483 297.099 36.0455C297.099 36.608 296.886 37.0895 296.46 37.4901C296.043 37.8906 295.54 38.0909 294.952 38.0909ZM310.5 41.3636V43.9205H300.324V41.3636H310.5ZM303.29 36.6591H306.307V55.375C306.307 56.2273 306.431 56.8665 306.678 57.2926C306.934 57.7102 307.257 57.9915 307.65 58.1364C308.05 58.2727 308.472 58.3409 308.915 58.3409C309.248 58.3409 309.52 58.3239 309.733 58.2898C309.946 58.2472 310.117 58.2131 310.245 58.1875L310.858 60.8977C310.654 60.9744 310.368 61.0511 310.002 61.1278C309.635 61.2131 309.171 61.2557 308.608 61.2557C307.756 61.2557 306.921 61.0724 306.103 60.706C305.293 60.3395 304.62 59.7812 304.083 59.0312C303.554 58.2812 303.29 57.3352 303.29 56.1932V36.6591ZM318.478 49.1875V61H315.461V34.8182H318.478V44.4318H318.733C319.194 43.4176 319.884 42.6122 320.804 42.0156C321.733 41.4105 322.969 41.108 324.512 41.108C325.85 41.108 327.022 41.3764 328.027 41.9134C329.033 42.4418 329.813 43.2557 330.367 44.3551C330.929 45.446 331.211 46.8352 331.211 48.5227V61H328.194V48.7273C328.194 47.1676 327.789 45.9616 326.979 45.1094C326.178 44.2486 325.066 43.8182 323.642 43.8182C322.654 43.8182 321.767 44.027 320.983 44.4446C320.208 44.8622 319.594 45.4716 319.142 46.2727C318.699 47.0739 318.478 48.0455 318.478 49.1875ZM365.162 43C364.881 42.1392 364.51 41.3679 364.05 40.6861C363.598 39.9957 363.057 39.4077 362.426 38.9219C361.804 38.4361 361.097 38.0653 360.304 37.8097C359.511 37.554 358.642 37.4261 357.696 37.4261C356.145 37.4261 354.734 37.8267 353.464 38.6278C352.195 39.429 351.185 40.6094 350.435 42.169C349.685 43.7287 349.31 45.642 349.31 47.9091C349.31 50.1761 349.689 52.0895 350.447 53.6491C351.206 55.2088 352.233 56.3892 353.528 57.1903C354.824 57.9915 356.281 58.392 357.901 58.392C359.401 58.392 360.722 58.0724 361.864 57.4332C363.014 56.7855 363.909 55.8736 364.548 54.6974C365.196 53.5128 365.52 52.1193 365.52 50.517L366.491 50.7216H358.616V47.9091H368.588V50.7216C368.588 52.8778 368.128 54.7528 367.207 56.3466C366.295 57.9403 365.034 59.1761 363.423 60.054C361.821 60.9233 359.98 61.358 357.901 61.358C355.582 61.358 353.545 60.8125 351.79 59.7216C350.043 58.6307 348.679 57.0795 347.699 55.0682C346.727 53.0568 346.241 50.6705 346.241 47.9091C346.241 45.8381 346.518 43.9759 347.072 42.3224C347.635 40.6605 348.428 39.2457 349.45 38.0781C350.473 36.9105 351.683 36.0156 353.081 35.3935C354.479 34.7713 356.017 34.4602 357.696 34.4602C359.077 34.4602 360.364 34.669 361.557 35.0866C362.759 35.4957 363.828 36.0795 364.766 36.8381C365.712 37.5881 366.5 38.4872 367.131 39.5355C367.761 40.5753 368.196 41.7301 368.435 43H365.162ZM381.586 61.4091C379.814 61.4091 378.258 60.9872 376.92 60.1435C375.591 59.2997 374.551 58.1193 373.801 56.6023C373.059 55.0852 372.689 53.3125 372.689 51.2841C372.689 49.2386 373.059 47.4531 373.801 45.9276C374.551 44.402 375.591 43.2173 376.92 42.3736C378.258 41.5298 379.814 41.108 381.586 41.108C383.359 41.108 384.91 41.5298 386.24 42.3736C387.578 43.2173 388.618 44.402 389.359 45.9276C390.109 47.4531 390.484 49.2386 390.484 51.2841C390.484 53.3125 390.109 55.0852 389.359 56.6023C388.618 58.1193 387.578 59.2997 386.24 60.1435C384.91 60.9872 383.359 61.4091 381.586 61.4091ZM381.586 58.6989C382.933 58.6989 384.041 58.3537 384.91 57.6634C385.779 56.973 386.423 56.0653 386.841 54.9403C387.258 53.8153 387.467 52.5966 387.467 51.2841C387.467 49.9716 387.258 48.7486 386.841 47.6151C386.423 46.4815 385.779 45.5653 384.91 44.8665C384.041 44.1676 382.933 43.8182 381.586 43.8182C380.24 43.8182 379.132 44.1676 378.262 44.8665C377.393 45.5653 376.75 46.4815 376.332 47.6151C375.914 48.7486 375.706 49.9716 375.706 51.2841C375.706 52.5966 375.914 53.8153 376.332 54.9403C376.75 56.0653 377.393 56.973 378.262 57.6634C379.132 58.3537 380.24 58.6989 381.586 58.6989ZM403.067 61.4091C401.294 61.4091 399.739 60.9872 398.401 60.1435C397.071 59.2997 396.031 58.1193 395.281 56.6023C394.54 55.0852 394.169 53.3125 394.169 51.2841C394.169 49.2386 394.54 47.4531 395.281 45.9276C396.031 44.402 397.071 43.2173 398.401 42.3736C399.739 41.5298 401.294 41.108 403.067 41.108C404.839 41.108 406.391 41.5298 407.72 42.3736C409.058 43.2173 410.098 44.402 410.839 45.9276C411.589 47.4531 411.964 49.2386 411.964 51.2841C411.964 53.3125 411.589 55.0852 410.839 56.6023C410.098 58.1193 409.058 59.2997 407.72 60.1435C406.391 60.9872 404.839 61.4091 403.067 61.4091ZM403.067 58.6989C404.413 58.6989 405.521 58.3537 406.391 57.6634C407.26 56.973 407.903 56.0653 408.321 54.9403C408.739 53.8153 408.947 52.5966 408.947 51.2841C408.947 49.9716 408.739 48.7486 408.321 47.6151C407.903 46.4815 407.26 45.5653 406.391 44.8665C405.521 44.1676 404.413 43.8182 403.067 43.8182C401.72 43.8182 400.612 44.1676 399.743 44.8665C398.874 45.5653 398.23 46.4815 397.812 47.6151C397.395 48.7486 397.186 49.9716 397.186 51.2841C397.186 52.5966 397.395 53.8153 397.812 54.9403C398.23 56.0653 398.874 56.973 399.743 57.6634C400.612 58.3537 401.72 58.6989 403.067 58.6989ZM424.496 68.7727C423.039 68.7727 421.786 68.5852 420.738 68.2102C419.689 67.8438 418.816 67.358 418.117 66.7528C417.426 66.1563 416.877 65.517 416.468 64.8352L418.871 63.1477C419.144 63.5057 419.489 63.9148 419.907 64.375C420.324 64.8438 420.895 65.2486 421.62 65.5895C422.353 65.9389 423.311 66.1136 424.496 66.1136C426.081 66.1136 427.39 65.7301 428.421 64.9631C429.452 64.196 429.968 62.9943 429.968 61.358V57.3693H429.712C429.49 57.7273 429.175 58.1705 428.766 58.6989C428.365 59.2188 427.786 59.6832 427.027 60.0923C426.277 60.4929 425.263 60.6932 423.985 60.6932C422.4 60.6932 420.976 60.3182 419.715 59.5682C418.462 58.8182 417.469 57.7273 416.736 56.2955C416.012 54.8636 415.65 53.125 415.65 51.0795C415.65 49.0682 416.003 47.3168 416.711 45.8253C417.418 44.3253 418.402 43.1662 419.664 42.348C420.925 41.5213 422.382 41.108 424.036 41.108C425.314 41.108 426.328 41.321 427.078 41.7472C427.837 42.1648 428.417 42.642 428.817 43.179C429.226 43.7074 429.542 44.142 429.763 44.483H430.07V41.3636H432.985V61.5625C432.985 63.25 432.601 64.6222 431.834 65.679C431.076 66.7443 430.053 67.5241 428.766 68.0185C427.488 68.5213 426.064 68.7727 424.496 68.7727ZM424.394 57.983C425.604 57.983 426.627 57.706 427.462 57.152C428.297 56.598 428.932 55.8011 429.367 54.7614C429.801 53.7216 430.019 52.4773 430.019 51.0284C430.019 49.6136 429.806 48.3651 429.38 47.2827C428.953 46.2003 428.323 45.3523 427.488 44.7386C426.652 44.125 425.621 43.8182 424.394 43.8182C423.115 43.8182 422.05 44.142 421.198 44.7898C420.354 45.4375 419.719 46.3068 419.293 47.3977C418.875 48.4886 418.667 49.6989 418.667 51.0284C418.667 52.392 418.88 53.598 419.306 54.6463C419.74 55.6861 420.38 56.5043 421.223 57.1009C422.076 57.6889 423.132 57.983 424.394 57.983ZM441.525 34.8182V61H438.507V34.8182H441.525ZM455.283 61.4091C453.391 61.4091 451.759 60.9915 450.387 60.1562C449.023 59.3125 447.971 58.1364 447.229 56.6278C446.496 55.1108 446.13 53.3466 446.13 51.3352C446.13 49.3239 446.496 47.5511 447.229 46.017C447.971 44.4744 449.002 43.2727 450.323 42.4119C451.653 41.5426 453.204 41.108 454.977 41.108C455.999 41.108 457.009 41.2784 458.006 41.6193C459.004 41.9602 459.911 42.5142 460.729 43.2812C461.548 44.0398 462.2 45.0455 462.685 46.2983C463.171 47.5511 463.414 49.0937 463.414 50.9261V52.2045H448.278V49.5966H460.346C460.346 48.4886 460.124 47.5 459.681 46.6307C459.246 45.7614 458.624 45.0753 457.815 44.5724C457.013 44.0696 456.067 43.8182 454.977 43.8182C453.775 43.8182 452.735 44.1165 451.857 44.7131C450.988 45.3011 450.319 46.0682 449.85 47.0142C449.381 47.9602 449.147 48.9744 449.147 50.0568V51.7955C449.147 53.2784 449.403 54.5355 449.914 55.5668C450.434 56.5895 451.154 57.3693 452.075 57.9062C452.995 58.4347 454.065 58.6989 455.283 58.6989C456.076 58.6989 456.792 58.5881 457.431 58.3665C458.079 58.1364 458.637 57.7955 459.106 57.3438C459.575 56.8835 459.937 56.3125 460.192 55.6307L463.107 56.4489C462.8 57.4375 462.285 58.3068 461.56 59.0568C460.836 59.7983 459.941 60.3778 458.876 60.7955C457.81 61.2045 456.613 61.4091 455.283 61.4091Z" fill="white"/>
<path d="M78.611 46.083H77V46H59V54H70.303C68.654 58.657 64.223 62 59 62C52.373 62 47 56.627 47 50C47 43.373 52.373 38 59 38C62.059 38 64.842 39.154 66.961 41.039L72.618 35.382C69.046 32.053 64.268 30 59 30C47.955 30 39 38.955 39 50C39 61.045 47.955 70 59 70C70.045 70 79 61.045 79 50C79 48.659 78.862 47.35 78.611 46.083Z" fill="#FFC107"/>
<path d="M41.306 40.691L47.877 45.51C49.655 41.108 53.961 38 59 38C62.059 38 64.842 39.154 66.961 41.039L72.618 35.382C69.046 32.053 64.268 30 59 30C51.318 30 44.656 34.337 41.306 40.691Z" fill="#FF3D00"/>
<path d="M59 70C64.166 70 68.86 68.023 72.409 64.808L66.219 59.57C64.211 61.091 61.715 62 59 62C53.798 62 49.381 58.683 47.717 54.054L41.195 59.079C44.505 65.556 51.227 70 59 70Z" fill="#4CAF50"/>
<path d="M78.611 46.083H77V46H59V54H70.303C69.511 56.237 68.072 58.166 66.216 59.571L66.219 59.569L72.409 64.807C71.971 65.205 79 60 79 50C79 48.659 78.862 47.35 78.611 46.083Z" fill="#1976D2"/>
<defs>
<filter id="filter0_d_0_1" x="0" y="0" width="531" height="108" filterUnits="userSpaceOnUse" color-interpolation-filters="sRGB">
<feFlood flood-opacity="0" result="BackgroundImageFix"/>
<feColorMatrix in="SourceAlpha" type="matrix" values="0 0 0 0 0 0 0 0 0 0 0 0 0 0 0 0 0 0 127 0" result="hardAlpha"/>
<feOffset dy="4"/>
<feGaussianBlur stdDeviation="2"/>
<feComposite in2="hardAlpha" operator="out"/>
<feColorMatrix type="matrix" values="0 0 0 0 0 0 0 0 0 0 0 0 0 0 0 0 0 0 0.25 0"/>
<feBlend mode="normal" in2="BackgroundImageFix" result="effect1_dropShadow_0_1"/>
<feBlend mode="normal" in="SourceGraphic" in2="effect1_dropShadow_0_1" result="shape"/>
</filter>
</defs>
</svg>
